<svg xmlns="http://www.w3.org/2000/svg" width="1200" height="720" viewBox="0 0 1200 720">
<style>
.title { font: 700 22px sans-serif; fill: #1f2937; }
.axis { font: 12px sans-serif; fill: #4b5563; }
.legend { font: 13px sans-serif; fill: #374151; }
.small { font: 11px sans-serif; fill: #6b7280; }
</style>
<rect x="0" y="0" width="1200" height="720" fill="#ffffff"/>
<text x="90" y="42" class="title">Training Timing vs Step</text>
<rect x="90" y="80" width="980" height="520" fill="#f8fafc" stroke="#cbd5e1"/>
<line x1="90.00" y1="80" x2="90.00" y2="600" stroke="#e5e7eb"/>
<text x="90.00" y="624" text-anchor="middle" class="axis">100</text>
<line x1="286.00" y1="80" x2="286.00" y2="600" stroke="#e5e7eb"/>
<text x="286.00" y="624" text-anchor="middle" class="axis">2080</text>
<line x1="482.00" y1="80" x2="482.00" y2="600" stroke="#e5e7eb"/>
<text x="482.00" y="624" text-anchor="middle" class="axis">4060</text>
<line x1="678.00" y1="80" x2="678.00" y2="600" stroke="#e5e7eb"/>
<text x="678.00" y="624" text-anchor="middle" class="axis">6040</text>
<line x1="874.00" y1="80" x2="874.00" y2="600" stroke="#e5e7eb"/>
<text x="874.00" y="624" text-anchor="middle" class="axis">8020</text>
<line x1="1070.00" y1="80" x2="1070.00" y2="600" stroke="#e5e7eb"/>
<text x="1070.00" y="624" text-anchor="middle" class="axis">10000</text>
<line x1="90" y1="600.00" x2="1070" y2="600.00" stroke="#e5e7eb"/>
<text x="78" y="604.00" text-anchor="end" class="axis">-0.01664</text>
<line x1="90" y1="496.00" x2="1070" y2="496.00" stroke="#e5e7eb"/>
<text x="78" y="500.00" text-anchor="end" class="axis">0.03742</text>
<line x1="90" y1="392.00" x2="1070" y2="392.00" stroke="#e5e7eb"/>
<text x="78" y="396.00" text-anchor="end" class="axis">0.09147</text>
<line x1="90" y1="288.00" x2="1070" y2="288.00" stroke="#e5e7eb"/>
<text x="78" y="292.00" text-anchor="end" class="axis">0.1455</text>
<line x1="90" y1="184.00" x2="1070" y2="184.00" stroke="#e5e7eb"/>
<text x="78" y="188.00" text-anchor="end" class="axis">0.1996</text>
<line x1="90" y1="80.00" x2="1070" y2="80.00" stroke="#e5e7eb"/>
<text x="78" y="84.00" text-anchor="end" class="axis">0.2536</text>
<text x="580.00" y="692" text-anchor="middle" class="axis">Training Step</text>
<text x="24" y="340.00" text-anchor="middle" class="axis" transform="rotate(-90 24 340.00)">Seconds</text>
<polyline fill="none" stroke="#059669" stroke-width="3" stroke-linejoin="round" stroke-linecap="round" points="90.00,152.42 99.90,160.11 109.80,162.04 119.70,160.11 129.60,140.87 139.49,138.95 149.39,142.80 159.29,137.03 169.19,138.95 179.09,142.80 179.09,138.95 179.09,140.87 179.09,133.18 179.09,125.48 278.08,121.63 278.08,127.41 278.08,133.18 278.08,140.87 278.08,138.95 278.08,146.64 278.08,148.57 278.08,148.57 278.08,148.57 278.08,148.57 278.08,148.57 377.07,148.57 377.07,146.64 377.07,144.72 377.07,144.72 377.07,140.87 377.07,146.64 377.07,142.80 377.07,140.87 377.07,135.10 476.06,123.56 476.06,123.56 476.06,121.63 476.06,115.86 476.06,123.56 476.06,127.41 476.06,127.41 476.06,119.71 476.06,125.48 476.06,123.56 476.06,121.63 575.05,129.33 575.05,119.71 575.05,125.48 575.05,140.87 575.05,140.87 575.05,142.80 575.05,140.87 575.05,125.48 575.05,117.79 674.04,119.71 674.04,117.79 674.04,121.63 674.04,117.79 674.04,119.71 674.04,121.63 674.04,133.18 674.04,129.33 674.04,121.63 674.04,123.56 674.04,135.10 773.03,123.56 773.03,125.48 773.03,125.48 773.03,127.41 773.03,127.41 773.03,129.33 773.03,125.48 773.03,121.63 773.03,123.56 872.02,123.56 872.02,127.41 872.02,119.71 872.02,121.63 872.02,131.25 872.02,121.63 872.02,119.71 872.02,123.56 872.02,121.63 872.02,119.71 872.02,115.86 971.01,121.63 971.01,121.63 971.01,117.79 971.01,123.56 971.01,123.56 971.01,140.87 971.01,123.56 971.01,123.56 971.01,123.56 1070.00,119.71 1070.00,121.63 1070.00,125.48 1070.00,121.63 1070.00,133.18 1070.00,133.18"/>
<rect x="90" y="46" width="18" height="8" fill="#059669"/>
<text x="116" y="54" class="legend">update_s</text>
<polyline fill="none" stroke="#ea580c" stroke-width="3" stroke-linejoin="round" stroke-linecap="round" points="90.00,562.21 99.90,564.14 109.80,564.14 119.70,564.14 129.60,564.14 139.49,564.14 149.39,564.14 159.29,564.14 169.19,564.14 179.09,564.14 179.09,564.14 179.09,564.14 179.09,564.14 179.09,564.14 278.08,564.14 278.08,564.14 278.08,564.14 278.08,564.14 278.08,564.14 278.08,564.14 278.08,564.14 278.08,564.14 278.08,564.14 278.08,564.14 278.08,564.14 377.07,564.14 377.07,564.14 377.07,564.14 377.07,564.14 377.07,564.14 377.07,564.14 377.07,564.14 377.07,564.14 377.07,564.14 476.06,564.14 476.06,564.14 476.06,564.14 476.06,564.14 476.06,564.14 476.06,564.14 476.06,564.14 476.06,564.14 476.06,564.14 476.06,564.14 476.06,564.14 575.05,564.14 575.05,564.14 575.05,564.14 575.05,564.14 575.05,564.14 575.05,564.14 575.05,564.14 575.05,564.14 575.05,564.14 674.04,564.14 674.04,564.14 674.04,564.14 674.04,564.14 674.04,564.14 674.04,564.14 674.04,564.14 674.04,564.14 674.04,564.14 674.04,564.14 674.04,564.14 773.03,564.14 773.03,564.14 773.03,564.14 773.03,564.14 773.03,564.14 773.03,564.14 773.03,564.14 773.03,564.14 773.03,564.14 872.02,564.14 872.02,564.14 872.02,564.14 872.02,564.14 872.02,564.14 872.02,564.14 872.02,564.14 872.02,564.14 872.02,564.14 872.02,564.14 872.02,564.14 971.01,564.14 971.01,564.14 971.01,564.14 971.01,564.14 971.01,564.14 971.01,564.14 971.01,564.14 971.01,564.14 971.01,564.14 1070.00,564.14 1070.00,564.14 1070.00,564.14 1070.00,564.14 1070.00,564.14 1070.00,564.14"/>
<rect x="270" y="46" width="18" height="8" fill="#ea580c"/>
<text x="296" y="54" class="legend">data_s</text>
<text x="90" y="712" class="small">log=hanoi_smolvla_v1_full_train.log</text>
</svg>