<svg xmlns="http://www.w3.org/2000/svg" width="1200" height="720" viewBox="0 0 1200 720">
<style>
.title { font: 700 22px sans-serif; fill: #1f2937; }
.axis { font: 12px sans-serif; fill: #4b5563; }
.legend { font: 13px sans-serif; fill: #374151; }
.small { font: 11px sans-serif; fill: #6b7280; }
</style>
<rect x="0" y="0" width="1200" height="720" fill="#ffffff"/>
<text x="90" y="42" class="title">Learning Rate vs Step</text>
<rect x="90" y="80" width="980" height="520" fill="#f8fafc" stroke="#cbd5e1"/>
<line x1="90.00" y1="80" x2="90.00" y2="600" stroke="#e5e7eb"/>
<text x="90.00" y="624" text-anchor="middle" class="axis">100</text>
<line x1="286.00" y1="80" x2="286.00" y2="600" stroke="#e5e7eb"/>
<text x="286.00" y="624" text-anchor="middle" class="axis">2080</text>
<line x1="482.00" y1="80" x2="482.00" y2="600" stroke="#e5e7eb"/>
<text x="482.00" y="624" text-anchor="middle" class="axis">4060</text>
<line x1="678.00" y1="80" x2="678.00" y2="600" stroke="#e5e7eb"/>
<text x="678.00" y="624" text-anchor="middle" class="axis">6040</text>
<line x1="874.00" y1="80" x2="874.00" y2="600" stroke="#e5e7eb"/>
<text x="874.00" y="624" text-anchor="middle" class="axis">8020</text>
<line x1="1070.00" y1="80" x2="1070.00" y2="600" stroke="#e5e7eb"/>
<text x="1070.00" y="624" text-anchor="middle" class="axis">10000</text>
<line x1="90" y1="600.00" x2="1070" y2="600.00" stroke="#e5e7eb"/>
<text x="78" y="604.00" text-anchor="end" class="axis">-5.3e-06</text>
<line x1="90" y1="496.00" x2="1070" y2="496.00" stroke="#e5e7eb"/>
<text x="78" y="500.00" text-anchor="end" class="axis">1.732e-05</text>
<line x1="90" y1="392.00" x2="1070" y2="392.00" stroke="#e5e7eb"/>
<text x="78" y="396.00" text-anchor="end" class="axis">3.994e-05</text>
<line x1="90" y1="288.00" x2="1070" y2="288.00" stroke="#e5e7eb"/>
<text x="78" y="292.00" text-anchor="end" class="axis">6.256e-05</text>
<line x1="90" y1="184.00" x2="1070" y2="184.00" stroke="#e5e7eb"/>
<text x="78" y="188.00" text-anchor="end" class="axis">8.518e-05</text>
<line x1="90" y1="80.00" x2="1070" y2="80.00" stroke="#e5e7eb"/>
<text x="78" y="84.00" text-anchor="end" class="axis">0.0001078</text>
<text x="580.00" y="692" text-anchor="middle" class="axis">Training Step</text>
<text x="24" y="340.00" text-anchor="middle" class="axis" transform="rotate(-90 24 340.00)">Learning Rate</text>
<polyline fill="none" stroke="#2563eb" stroke-width="3" stroke-linejoin="round" stroke-linecap="round" points="90.00,506.67 99.90,368.74 109.80,230.80 119.70,125.06 129.60,115.86 139.49,120.46 149.39,120.46 159.29,120.46 169.19,125.06 179.09,125.06 179.09,129.66 179.09,129.66 179.09,134.25 179.09,134.25 278.08,138.85 278.08,143.45 278.08,143.45 278.08,148.05 278.08,152.64 278.08,157.24 278.08,161.84 278.08,166.44 278.08,171.03 278.08,175.63 278.08,180.23 377.07,184.83 377.07,189.43 377.07,194.02 377.07,198.62 377.07,203.22 377.07,212.41 377.07,217.01 377.07,221.61 377.07,230.80 476.06,235.40 476.06,240.00 476.06,249.20 476.06,253.79 476.06,262.99 476.06,267.59 476.06,272.18 476.06,281.38 476.06,285.98 476.06,295.17 476.06,299.77 575.05,308.97 575.05,313.56 575.05,322.76 575.05,327.36 575.05,336.55 575.05,345.75 575.05,350.34 575.05,359.54 575.05,364.14 674.04,373.33 674.04,377.93 674.04,387.13 674.04,391.72 674.04,400.92 674.04,405.52 674.04,414.71 674.04,419.31 674.04,423.91 674.04,433.10 674.04,437.70 773.03,446.90 773.03,451.49 773.03,456.09 773.03,465.29 773.03,469.89 773.03,474.48 773.03,479.08 773.03,483.68 773.03,492.87 872.02,497.47 872.02,502.07 872.02,506.67 872.02,511.26 872.02,515.86 872.02,520.46 872.02,525.06 872.02,525.06 872.02,531.03 872.02,534.71 872.02,537.93 971.01,541.15 971.01,544.37 971.01,547.13 971.01,549.89 971.01,552.18 971.01,554.02 971.01,556.32 971.01,558.16 971.01,559.54 1070.00,560.92 1070.00,561.84 1070.00,562.76 1070.00,563.22 1070.00,563.68 1070.00,564.14"/>
<rect x="90" y="46" width="18" height="8" fill="#2563eb"/>
<text x="116" y="54" class="legend">lr</text>
<text x="90" y="712" class="small">log=hanoi_smolvla_v1_full_train.log</text>
</svg>